<svg width="612" height="573" xmlns="http://www.w3.org/2000/svg" xmlns:xlink="http://www.w3.org/1999/xlink" xml:space="preserve" overflow="hidden"><defs><clipPath id="clip0"><rect x="334" y="73" width="612" height="573"/></clipPath></defs><g clip-path="url(#clip0)" transform="translate(-334 -73)"><path d="M0 286.5 0 0 305.822 0 611.644 0 611.644 286.5 611.644 573 305.822 573 0 573 0 286.5ZM289.165 457.201 289.165 401.366 263.047 386.309C245.59 376.314 237.595 370.984 238.794 370.318 239.727 369.785 251.32 362.989 264.513 355.393L288.499 341.535 288.499 319.947 288.499 298.227 266.512 285.567C254.385 278.638 231.199 265.179 214.808 255.718 198.418 246.257 184.559 238.528 183.893 238.528 181.361 238.528 173.899 263.313 172.966 274.907L172.566 280.104 205.614 299.026C223.737 309.553 239.194 318.615 239.86 319.281 240.793 320.347 200.017 344.999 195.353 346.199 194.553 346.332 178.03 337.27 158.574 326.077L123.262 305.689 122.329 300.359C119.131 283.435 126.327 242.392 136.454 219.606L139.652 212.41 121.663 202.016C111.802 196.286 103.14 192.155 102.474 192.821 100.075 195.22 90.0809 222.404 86.6163 236.263 81.4193 257.317 79.4205 275.973 80.3533 298.626 81.1528 322.479 83.9512 338.203 91.2802 360.457 107.804 411.094 141.384 453.47 187.224 481.453 191.622 484.118 195.753 486.384 196.286 486.384 196.819 486.384 197.219 475.323 197.219 461.865L197.219 437.346 190.689 432.548C180.695 425.219 161.106 403.898 152.844 391.506 145.782 380.845 136.587 363.922 137.52 363.122 137.787 362.856 162.572 376.981 192.555 394.304L247.19 425.752 247.589 466.662 247.856 507.438 260.249 509.57C277.305 512.502 278.505 512.635 284.235 512.902L289.165 513.035 289.165 457.201ZM349.397 508.904C388.174 501.175 427.618 480.387 457.334 452.004 516.1 395.903 539.419 313.817 519.165 234.264 515.966 221.738 506.106 195.087 503.84 192.821 503.174 192.155 494.512 196.286 484.651 202.016L466.795 212.41 470.526 221.338C475.99 234.13 480.52 250.654 482.386 264.913 483.319 271.709 483.852 277.439 483.585 277.705 483.319 277.972 473.191 283.835 461.065 290.764 448.939 297.693 421.222 313.684 399.501 326.343 377.78 338.87 359.657 349.13 359.258 349.13 358.858 349.13 358.458 332.34 358.458 311.952L358.458 274.773 338.203 286.5 317.815 298.227 317.415 405.764 317.149 513.435 326.743 512.502C332.073 511.969 342.334 510.37 349.397 508.904ZM323.678 262.914C334.739 256.517 343.667 250.921 343.533 250.254 343.267 249.721 307.155 228.534 263.18 203.215 219.339 177.896 183.093 156.842 182.827 156.576 181.761 155.643 189.756 149.247 203.748 139.919L217.473 130.724 223.07 133.789C226.002 135.521 245.59 146.848 266.512 158.841 287.433 170.967 322.346 191.089 344.066 203.615 365.92 216.274 384.443 226.535 385.376 226.535 386.175 226.535 409.895 213.343 438.012 197.085 484.518 170.168 488.916 167.369 487.583 165.104 484.252 158.841 464.13 135.255 455.335 127.393 413.36 89.6812 366.987 70.4923 313.151 68.3602 291.83 67.5607 273.308 68.6267 275.306 70.6256 275.973 71.2919 293.962 81.8191 315.15 94.0786 339.936 108.337 359.124 118.464 368.719 122.196 376.981 125.527 388.84 131.257 395.103 134.988 406.164 141.651 423.62 154.443 423.753 155.909 423.753 156.309 415.092 161.639 404.565 167.769L385.376 178.696 348.864 157.775C328.875 146.182 296.894 127.792 277.838 116.865 258.783 105.938 238.128 93.9453 231.998 90.3474 220.805 83.8179 220.672 83.6846 215.475 85.417 206.68 88.3486 182.694 102.34 169.235 112.335 162.306 117.532 151.245 127.126 144.583 133.789 130.857 147.647 116.332 166.303 118.065 167.902 118.731 168.435 143.517 182.827 173.233 199.884 202.949 216.94 243.991 240.793 264.513 252.653 285.034 264.513 302.224 274.374 302.757 274.374 303.157 274.507 312.618 269.31 323.678 262.914Z" fill="#007BE2" transform="matrix(1 0 0 -1 334.178 646)"/><path d="M358.725 430.283 359.124 398.168 375.781 388.574C422.154 361.656 478.788 329.142 479.188 329.142 482.12 329.142 471.859 358.591 463.597 374.582 447.473 405.231 419.623 433.481 389.107 450.005 380.845 454.402 362.056 462.398 359.924 462.398 358.858 462.398 358.458 452.803 358.725 430.283Z" fill="#007BE2" transform="matrix(1 0 0 -1 334.178 646)"/></g></svg>